Coordinates
version=1
nRows=16
nColumns=36
inDegrees=yes

Units are S.I. units (second, meters, Newtons, ...)
If the header above contains a line with 'inDegrees', this indicates whether rotational values are in degrees (yes) or radians (no).

endheader
time	pelvis_tilt	pelvis_list	pelvis_rotation	pelvis_tx	pelvis_ty	pelvis_tz	hip_flexion_r	hip_adduction_r	hip_rotation_r	knee_angle_r	knee_angle_r_beta	ankle_angle_r	subtalar_angle_r	mtp_angle_r	hip_flexion_l	hip_adduction_l	hip_rotation_l	knee_angle_l	knee_angle_l_beta	ankle_angle_l	subtalar_angle_l	mtp_angle_l	lumbar_extension	lumbar_bending	lumbar_rotation	arm_flex_r	arm_add_r	arm_rot_r	elbow_flex_r	pro_sup_r	arm_flex_l	arm_add_l	arm_rot_l	elbow_flex_l	pro_sup_l
      1.35000000	     -5.62362011	      2.07522244	      8.67477234	     -0.48992080	      1.26405512	     -0.57929992	     20.22696493	     -4.99283760	    -20.65864367	      2.29621719	      0.04007655	    -31.36348867	      5.73731374	     -6.87856711	     23.03364965	      1.34539414	     -8.04179731	     13.49810364	      0.23558635	    -20.22243183	      0.22091788	     -6.87856711	    -16.71825503	     -3.17514135	     -4.97120083	    -77.18582236	    -30.80591845	    -90.98980037	    138.74909956	     85.93979020	    -46.34592643	    -27.93992513	    -54.02816279	    139.81455943	     92.29100033
      1.36000000	     -5.07280781	      2.42209630	      8.65914744	     -0.47622217	      1.24463892	     -0.57791836	     19.79150791	     -5.31804558	    -20.95010906	      2.05361866	      0.03584241	    -32.15708959	      6.69139673	     -6.93697237	     22.90976279	      1.34040446	     -8.21353604	     13.36821645	      0.23331939	    -20.84198238	      1.39658553	     -6.93697237	    -16.83260978	     -3.65589353	     -5.30651124	    -79.61804748	    -27.43029385	    -89.19782820	    140.25710017	     85.42749503	    -52.16962187	    -24.89760708	    -55.31244331	    139.95285408	     91.83287262
      1.37000000	     -4.49332582	      2.76704551	      8.60691434	     -0.46269209	      1.22442247	     -0.57639703	     19.40928951	     -5.63178764	    -20.95386619	      2.05989445	      0.03595194	    -32.92827537	      7.18930910	     -6.98478276	     22.87096532	      1.27019874	     -8.36503679	     13.63446263	      0.23796626	    -21.23057438	      2.65017748	     -6.98478276	    -16.92010142	     -4.16690567	     -5.57262133	    -81.61661879	    -24.04989162	    -86.79527934	    141.69709107	     85.41683197	    -57.45042415	    -21.61024985	    -55.86332035	    139.68080577	     91.61356198
      1.38000000	     -3.85671885	      3.08674189	      8.56159372	     -0.44937452	      1.20346750	     -0.57480882	     19.11702956	     -5.95315660	    -20.74331800	      2.48642096	      0.04339623	    -33.60719123	      6.85703959	     -7.02743913	     22.91154053	      1.14737002	     -8.41145784	     14.33728925	      0.25023290	    -21.37269863	      3.78280207	     -7.02743913	    -17.05739048	     -4.65190082	     -5.81369452	    -83.17595094	    -20.67200790	    -83.85078827	    142.95369996	     85.28007099	    -62.14764206	    -18.07786598	    -55.78862946	    139.06091274	     91.07243744
      1.39000000	     -3.34071755	      3.30991142	      8.46403318	     -0.43653402	      1.18148106	     -0.57310313	     19.21191550	     -6.24251135	    -20.14539271	      3.57497635	      0.06239511	    -33.69563730	      5.91663895	     -7.16906537	     23.32318235	      0.90351681	     -8.34223347	     15.66600164	      0.27342331	    -21.12940345	      4.79440242	     -7.16906537	    -17.06506937	     -5.01701041	     -5.96833498	    -84.26384883	    -17.32175925	    -80.84466429	    143.69700424	     90.85256249	    -66.13452514	    -14.33865665	    -55.30365175	    137.25888783	     95.72788214
      1.40000000	     -2.66114897	      3.49522732	      8.35035416	     -0.42427004	      1.15884425	     -0.57135095	     19.42185770	     -6.53803122	    -19.44505730	      5.37866619	      0.09387543	    -33.69854000	      4.45725712	     -7.22044757	     23.79192809	      0.58273624	     -8.12880177	     17.60579794	      0.30727914	    -20.37413535	      5.75150848	     -7.22044757	    -17.36917954	     -5.33380181	     -6.07250721	    -84.90179070	    -13.96743468	    -77.17862748	    144.52712884	     89.70642344	    -69.27482530	    -10.40423303	    -54.35547355	    135.95988418	     93.75756206
      1.41000000	     -1.98364215	      3.63530581	      8.19158565	     -0.41263736	      1.13526551	     -0.56975471	     19.95201933	     -6.85340473	    -18.44708964	      7.75293303	      0.13531421	    -34.23493943	      3.16272621	     -7.30215873	     24.57406473	      0.20661364	     -7.89938816	     20.26186760	      0.35363630	    -19.09117159	      6.56460801	     -7.30215873	    -17.81393941	     -5.57306676	     -6.09543466	    -85.04817134	    -10.64250847	    -73.47857357	    144.45595212	     95.26759472	    -71.46206902	     -6.52067629	    -53.59339443	    133.54579600	     97.41992342
      1.42000000	     -1.22426461	      3.78262296	      8.14128043	     -0.40177305	      1.11095227	     -0.56855349	     20.69450764	     -7.28993902	    -17.43617480	     10.65048325	      0.18588600	    -34.90486119	      2.41069578	     -7.31722731	     25.54291905	     -0.04827543	     -7.33563531	     23.51748650	      0.41045757	    -17.74567840	      6.66852620	     -7.31722731	    -18.55831719	     -5.62949155	     -6.20956964	    -84.68243338	     -7.27406069	    -69.38047265	    144.57352736	     94.40866727	    -72.43345692	     -2.96860194	    -52.50020697	    131.19973791	     96.00504111
      1.43000000	     -0.65050342	      3.43378674	      7.99409169	     -0.39206029	      1.08528592	     -0.56681811	     22.02836857	     -7.03293819	    -15.66587626	     14.69907570	      0.25654727	    -33.35172107	      0.14855120	     -7.33797855	     27.29555913	     -0.92858920	     -6.81078640	     27.77530094	      0.48477045	    -15.56859125	      8.02182416	     -7.33797855	    -19.28698451	     -5.27290311	     -6.22334563	    -83.47279296	     -4.44274760	    -65.10549417	    143.80693390	     94.18122387	    -72.23723413	      0.45816533	    -51.56989766	    128.66043025	     94.93037995
      1.44000000	     -0.07493519	      2.87994908	      7.72497842	     -0.38348191	      1.05871868	     -0.56508374	     24.09478325	     -6.64342180	    -14.40808887	     21.62849642	      0.37748847	    -25.15254988	     -2.10483597	     -7.38405825	     29.36469415	     -1.96301274	     -6.10606388	     32.40433548	      0.56556235	    -14.01651776	      8.91038294	     -7.38405825	    -20.21853989	     -4.64560825	     -5.90395019	    -81.71720451	     -1.78867877	    -61.20997703	    142.01408419	    100.07758608	    -70.86252969	      3.13802887	    -50.66992814	    125.40046206	     98.69254441
      1.45000000	      0.39394328	      2.54949784	      7.50611044	     -0.37588863	      1.03098492	     -0.56392549	     27.13268769	     -6.65564140	    -13.39257109	     31.19825465	      0.54451226	    -12.99508847	     -4.16612274	     -7.40374490	     31.73600508	     -2.56220485	     -5.20247374	     37.47853978	      0.65412392	    -12.11187294	      9.09019149	     -7.40374490	    -21.26872214	     -4.21852129	     -5.70406430	    -79.46354799	      0.25821902	    -57.00168591	    140.22861372	     97.35067339	    -68.67799833	      5.35288072	    -49.42214042	    122.94054605	     95.76943696
      1.46000000	      1.07257459	      2.61443642	      7.55280217	     -0.36893658	      1.00288887	     -0.56361310	     30.34056123	     -7.12824401	    -12.26312618	     41.13319723	      0.71790972	     -2.10851313	     -5.38193645	     -7.42055655	     33.97048246	     -2.46441951	     -4.10461839	     43.43850902	      0.75814500	     -8.20863805	      7.95375452	     -7.42055655	    -22.80314417	     -4.02150545	     -5.87818206	    -76.69847901	      1.74958151	    -53.15226361	    137.77535411	     96.08599089	    -65.90674340	      6.94242622	    -48.20057622	    120.31791480	     94.06807510
      1.47000000	      1.68208107	      2.60557077	      7.60697174	     -0.36275700	      0.97465655	     -0.56351936	     33.49983257	     -7.36860394	    -11.18676795	     49.66205635	      0.86676640	      4.95395844	     -7.02338558	     -7.43262281	     36.43679342	     -2.33690756	     -3.11458380	     50.53083496	      0.88192944	     -1.92503346	      6.43713711	     -7.43262281	    -24.39626333	     -3.75867641	     -6.04850830	    -73.33047185	      2.58900270	    -49.63980819	    134.86537857	     94.97998454	    -62.59932710	      8.03066887	    -46.87210097	    117.72309491	     92.63120486
      1.48000000	      2.28831995	      2.33963606	      7.47420963	     -0.35743464	      0.94749864	     -0.56351790	     36.04369324	     -7.28738324	    -10.74399797	     56.46566405	      0.98551175	     10.47694971	     -8.76966871	     -7.44120470	     38.93043631	     -2.45941507	     -2.33874334	     57.85877119	      1.00982606	      4.54667056	      4.51686022	     -7.44120470	    -26.13365029	     -3.27423820	     -5.84738150	    -69.33585712	      2.88699504	    -46.73426367	    131.20668098	     93.68897774	    -58.67064301	      8.43095102	    -45.09682236	    114.98416156	     91.18925528
      1.49000000	      2.46429286	      2.00389366	      7.21883063	     -0.35265490	      0.92147614	     -0.56356642	     38.48196121	     -7.23250066	    -10.75281884	     62.27890375	      1.08697193	     16.22747889	     -8.66089459	     -7.45334503	     41.82420613	     -2.69709246	     -1.81322111	     64.67366061	      1.12876832	      9.89517166	      4.10540342	     -7.45334503	    -27.41381849	     -2.82551992	     -5.44750296	    -64.68764683	      2.75545904	    -44.72463325	    126.05129434	    105.02155123	    -54.13562096	      8.24205416	    -43.46416651	    110.97838744	     99.73501564
      1.50000000	      2.13081432	      1.80767439	      6.97544082	     -0.34831027	      0.89682963	     -0.56348981	     41.07248051	     -7.15233054	    -10.65820727	     67.30302114	      1.17465932	     21.15663113	     -9.12307679	     -7.45937341	     44.98551120	     -2.72969144	     -1.43766196	     70.50374078	      1.23052241	     13.56989495	      3.17402302	     -7.45937341	    -28.22499628	     -2.63336171	     -5.12175775	    -59.55820666	      2.09336095	    -42.15289411	    121.14487308	    103.47650358	    -49.23660686	      7.47228181	    -41.16475989	    107.83342822	     98.35811131
